<svg width="428" height="511" viewBox="0 0 428 511" fill="none" xmlns="http://www.w3.org/2000/svg">
<path fill-rule="evenodd" clip-rule="evenodd" d="M214 140C214.155 140 214.31 140 214.465 139.999C285.883 139.767 344.71 86.059 353 16.8198V17.0001C353 16.9373 353 16.8745 353.001 16.8118C353.139 15.656 353.264 14.4958 353.374 13.3315C354.951 5.70936 361.343 0.00497199 368.99 0.000125161L369 0.00012207L428 0.000137329V511H0V0.000137329H58L59 0.00012207L59.0223 0.000136354C66.3733 0.00954535 72.5624 4.66635 74.4261 11.0046C77.0727 45.0416 91.8914 75.6635 114.534 98.5217C114.691 98.6798 114.848 98.8376 115.005 98.9951C115.169 99.1589 115.333 99.3222 115.497 99.485C140.793 124.532 175.59 140 214 140Z" fill="#28284C"/>
</svg>
