<svg width="30" height="30" viewBox="0 0 30 30" fill="none" xmlns="http://www.w3.org/2000/svg">
<path d="M22.5 22.5C23.1465 22.5 23.7665 22.7568 24.2236 23.2139C24.6807 23.671 24.9375 24.291 24.9375 24.9375C24.9375 25.584 24.6807 26.204 24.2236 26.6611C23.7665 27.1182 23.1465 27.375 22.5 27.375C21.8535 27.375 21.2335 27.1182 20.7764 26.6611C20.3193 26.204 20.0625 25.584 20.0625 24.9375C20.0625 23.5847 21.1472 22.5 22.5 22.5ZM3 3H6.98531L8.13094 5.4375H26.1562C26.4795 5.4375 26.7895 5.5659 27.018 5.79446C27.2466 6.02302 27.375 6.33302 27.375 6.65625C27.375 6.86344 27.3141 7.07063 27.2287 7.26562L22.8656 15.1509C22.4512 15.8944 21.6469 16.4062 20.7328 16.4062H11.6531L10.5562 18.3928L10.5197 18.5391C10.5197 18.6199 10.5518 18.6974 10.6089 18.7545C10.6661 18.8116 10.7436 18.8438 10.8244 18.8438H24.9375V21.2812H10.3125C9.66603 21.2812 9.04605 21.0244 8.58893 20.5673C8.13181 20.1102 7.875 19.4902 7.875 18.8438C7.875 18.4172 7.98469 18.015 8.1675 17.6737L9.825 14.6878L5.4375 5.4375H3V3ZM10.3125 22.5C10.959 22.5 11.579 22.7568 12.0361 23.2139C12.4932 23.671 12.75 24.291 12.75 24.9375C12.75 25.584 12.4932 26.204 12.0361 26.6611C11.579 27.1182 10.959 27.375 10.3125 27.375C9.66603 27.375 9.04605 27.1182 8.58893 26.6611C8.13181 26.204 7.875 25.584 7.875 24.9375C7.875 23.5847 8.95969 22.5 10.3125 22.5ZM21.2812 13.9688L24.6694 7.875H9.26437L12.1406 13.9688H21.2812Z" fill="#C5C2FB"/>
</svg>
