<svg width="30" height="30" viewBox="0 0 30 30" fill="none" xmlns="http://www.w3.org/2000/svg">
<path d="M4 12.3333V9.66667C4 8.95942 4.28095 8.28115 4.78105 7.78105C5.28115 7.28095 5.95942 7 6.66667 7H22.6667C23.3739 7 24.0522 7.28095 24.5523 7.78105C25.0524 8.28115 25.3333 8.95942 25.3333 9.66667V12.3333M4 12.3333H25.3333M4 12.3333V20.3333C4 21.0406 4.28095 21.7189 4.78105 22.219C5.28115 22.719 5.95942 23 6.66667 23H22.6667C23.3739 23 24.0522 22.719 24.5523 22.219C25.0524 21.7189 25.3333 21.0406 25.3333 20.3333V12.3333M8 19H14.6667" stroke="#C5C2FB" stroke-width="2.66667" stroke-linecap="round" stroke-linejoin="round"/>
</svg>
